<?xml version="1.0"?>
<svg xmlns="http://www.w3.org/2000/svg" xmlns:xlink="http://www.w3.org/1999/xlink" version="1.1" viewBox="0 0 252 252" width="48px" height="48px"><g fill="none" fill-rule="nonzero" stroke="none" stroke-width="1" stroke-linecap="butt" stroke-linejoin="miter" stroke-miterlimit="10" stroke-dasharray="" stroke-dashoffset="0" font-family="none" font-weight="none" font-size="none" text-anchor="none" style="mix-blend-mode: normal"><path d="M0,252v-252h252v252z" fill="none"/><g fill="#ffffff"><g id="surface1"><path d="M210,147c-27.99316,-3.05566 -63,-42 -63,-42h5.25c13.55566,8.01856 18.70313,15.75 18.70313,15.75c0,0 2.29688,-6.11133 2.29688,-10.5c0,0 12.75586,0.61524 18.58008,15.75c3.07617,-6.58301 2.41992,-12.73535 2.41992,-12.73535c0,0 11.52539,8.46973 13.30957,17.98535c3.4043,-9.76172 2.44043,-15.75 2.44043,-15.75c9.9668,3.26074 13.30957,21 13.30957,21c0,0 2.44043,-2.58398 2.44043,-10.5c7.91602,6.80859 5.25,15.75 5.25,15.75c0,0 6.00879,-7.25976 5.25,-21c-0.75879,-13.74023 -21,-21 -21,-21l-18.99023,-7.58789c-3.4043,-1.37402 -4.73731,-5.29102 -3.19922,-8.61328c0.69726,-1.45606 1.18945,-3.09668 1.18945,-4.79883c0,-5.5166 -32.09473,-47.25 -84,-47.25c0,0 36.75,8.1416 36.75,21c0,12.8584 -10.5,10.5 -10.5,10.5c0,0 -62.46679,-2.74804 -84,-47.25c0,0 6.93164,38.08301 57.33984,54.67383c-12.22266,2.1123 -22.41504,5.61914 -30.90527,10.06933c-3.05566,-0.96386 -7.97754,-1.74316 -15.93457,-1.74316c-20.67187,0 -36.75,15.75 -36.75,15.75c0,0 10.88965,-5.25 26.25,-5.25c5.43457,0 8.96191,0.65625 11.29981,1.49707c-7.09571,6.11133 -12.32519,12.8584 -16.18066,19.52344c-0.12305,0 -0.22559,-0.02051 -0.36914,-0.02051c-25.4707,0 -31.5,26.25 -31.5,26.25c6.74707,-10.35644 20.58984,-10.72559 24.89649,-10.58203c-3.89649,11.99707 -3.89649,21.08203 -3.89649,21.08203c-21.2666,8.05957 -21,36.75 -21,36.75c4.7168,-17.04199 16.67285,-20.46679 22.68164,-21.02051c1.41504,6.58301 3.58886,12.48926 6.19336,17.96484c-13.84277,12.69434 -13.125,34.55566 -13.125,34.55566c7.13672,-19.09277 18.08789,-20.83594 20.48731,-20.97949c8.05957,13.49414 16.26269,25.67578 16.26269,41.97949h115.5c0,-65.13281 -84,-48.02929 -84,-94.5c0,0 0.69727,-21.98437 26.25,-31.5c0,0 16.87793,52.5 47.25,52.5c4.16309,0 8.10059,-3.50684 10.5,-5.25c-13.35059,0 -21,-5.25 -21,-5.25c0,0 9.41309,-2.625 10.5,-5.25c-9.1875,0.43066 -15.75,-5.25 -15.75,-5.25c0,0 5.68066,-0.43066 10.5,-5.25c-18.04687,-0.63574 -23.68652,-16.52929 -25.45019,-25.49121c5.02441,4.77832 35.15039,32.83301 56.95019,41.24121c23.85059,9.1875 25.81934,11.15625 26.25,15.75c0.88184,-8.75684 -7.21875,-13.125 -10.5,-15.75c11.58691,0 21,5.25 21,5.25c-5.90625,-6.78809 -8.77734,-8.59277 -26.25,-10.5zM225.75,115.5c-10.31543,0 -10.5,-10.5 -10.5,-10.5c0,0 10.5,1.08691 10.5,10.5zM178.5,84h-7.30078c-2.05078,0 -4.01953,-0.82031 -5.47559,-2.27637l-8.22363,-8.22363c0,0 18.80566,-1.08691 21,10.5z"/></g></g></g></svg>
